<svg id="Layer_1" data-name="Layer 1" xmlns="http://www.w3.org/2000/svg" viewBox="0 0 167 162"><defs><style>.cls-1{fill:#fefefe;}.cls-2{fill:#fdfdfd;}.cls-3{fill:#434343;}.cls-4{fill:#848484;}.cls-5{fill:#f5f5f5;}.cls-6{fill:#e1e1e1;}.cls-7{fill:#bab9ba;}.cls-8{fill:#dbdcdd;}.cls-9{fill:#2e2e2e;}.cls-10{fill:#232424;}</style></defs><path d="M280,476.91h-2c-8.1-1.13-16-3.15-24.38-2.87a35.89,35.89,0,0,1-23.92-8.26c-3.77-3-6.42-6.67-6.14-11.81v-4.79c.2-8.16,3.6-15.49,6.27-22.95a702.54,702.54,0,0,1,33.73-78.16c5.35-10.68,13.79-16.87,25.28-18.92a62.21,62.21,0,0,0,18.17-6c12-6.23,25-6.38,37.74-1.92,3.65,1.28,6.87,1.63,10.58.35,6.82-2.34,13.87-3.48,21.1-2.13,2.68.51,4.83-.48,7-1.8,1.93-1.16,3.91-2.68,6.43-1.42v8c-1.08,12.88-7.31,24-12.47,35.42-8.64,19-13.07,39-15.16,59.6-1.46,14.37-3.23,28.72-7.2,42.68a42.42,42.42,0,0,1-2.25,6.6c-.49,1-1.12,2.55-2.32,2.34-7.77-1.36-14.81,3.75-22.56,2.41-11-1.88-21.78-1.95-32.22,2.68-1.54.68-3.28.39-4.95.4C287.21,476.67,283.57,475.81,280,476.91Z" transform="translate(-223 -315)"/><path class="cls-1" d="M389.93,316.27c-.17,0-.38,0-.49.05-7.17,5.8-15.88,3.36-23.91,4.69-9.69,1.6-18.63,2.59-28.69-.12-12.35-3.33-25.14-1.14-35.67,7.61-1.37,1.14-2.79.81-4.22.9-15.2.94-26.37,7-33.41,21.6-14.51,30.17-27.75,60.8-38.24,92.59-.57,1.72-.92,3.52-1.37,5.28-.22.55-.51.56-.86.1q0-65,0-130c0-2.36-.32-3.84,3.29-3.83,53.54.18,107.07.12,160.6.19C387.89,315.34,389.54,314.13,389.93,316.27Z" transform="translate(-223 -315)"/><path class="cls-1" d="M291.24,476.07A38.73,38.73,0,0,0,308,470.25a4.71,4.71,0,0,1,4.53-.55c10.78,3.41,21.61,3.59,32.2-.64,2.55-1,4,.13,5.9,1.56a108.41,108.41,0,0,0,8-33.88c2.51-33.63,10.47-65.67,25.31-96,2.55-5.21,4-11,6-16.46q0,74.43.07,148.86c0,3-.51,3.9-3.76,3.88-31.74-.15-63.48-.09-95.22-.09q-.51-.44-.24-.66A.69.69,0,0,1,291.24,476.07Z" transform="translate(-223 -315)"/><path class="cls-2" d="M223.93,454.06c2.65,11.58,12,15.12,21.84,17.71,5,1.32,10.18,1,15.38.75,6-.3,11.24,2.93,16.88,4.39-17.32,0-34.64-.06-52,.06-2.5,0-3.14-.55-3.06-3.06.2-6.64.06-13.3.06-20C223.42,453.5,223.71,453.51,223.93,454.06Z" transform="translate(-223 -315)"/><path class="cls-3" d="M291.24,476.07a2.75,2.75,0,0,1-.22.84H280C283.64,475,287.49,476.13,291.24,476.07Z" transform="translate(-223 -315)"/><path class="cls-4" d="M223.93,454.06a3.16,3.16,0,0,1-.86-.1v-5a3.11,3.11,0,0,1,.86-.1Z" transform="translate(-223 -315)"/><path class="cls-1" d="M324,355.22q-7.92,37-15.82,74c-.38,1.81-.71,3.45-2.31,4.74-5.16,4.18-10.3,8.4-15.26,12.81-1.85,1.65-2.9,1.4-4.41-.27-3.66-4.08-7.38-8.1-11.23-12-3.23-3.29-1.28-7.14-1.85-11.48,4.82,2.37,9.13,4.37,13.32,6.59,2,1.07,3.1.65,5-.77,8.8-6.39,8.72-16.24,10.59-25.32,3.44-16.73,6.7-33.49,10-50.24,3.36-1.14,6.82-.34,10.23-.49C324,352.69,324.89,353.44,324,355.22Z" transform="translate(-223 -315)"/><path class="cls-5" d="M348.05,349.89c2.39,2.44.41,3.79-1.39,4.91-6,3.68-12.28,3-18.63,1.26a1.6,1.6,0,0,1,0-2.22c3.82-2.47,8.29-1.55,12.41-2.43,2.08-.58,4.3-.27,6.37-.92C347.21,350.27,347.63,350.07,348.05,349.89Z" transform="translate(-223 -315)"/><path class="cls-6" d="M326.74,352.13c6.1-5.48,12.89-6,20.21-2.83-.7,3.16-3.68,1.19-5.27,2.33a18.19,18.19,0,0,1-5.6.56c-2.75-.51-5.24,1.47-8,.85A2.49,2.49,0,0,1,326.74,352.13Z" transform="translate(-223 -315)"/><path class="cls-7" d="M326.74,352.13l1.68.41a1.31,1.31,0,0,1-.43,1.59l0,1.93-4-.84c-.24-2.36-2-2.1-3.63-2.08-2.75,0-5.51.06-8.26.1,3.86-2.35,8-.83,12-.74A5.28,5.28,0,0,0,326.74,352.13Z" transform="translate(-223 -315)"/><path class="cls-8" d="M342,350.94c1.35-1.52,3.71.07,5-1.64l1.1.59-.3,1.62C345.8,351.53,343.78,352.34,342,350.94Z" transform="translate(-223 -315)"/><path class="cls-9" d="M328,354.13l.43-1.59c2.55-.31,4.95-1.57,7.61-1.14,1.66.9,3.75-.49,5.3,1Z" transform="translate(-223 -315)"/><path class="cls-10" d="M341.33,352.38c-1.73-.53-3.73.41-5.3-1l5.93-.46c1.94.1,3.94-.37,5.79.57C345.83,353.38,343.51,352.33,341.33,352.38Z" transform="translate(-223 -315)"/></svg>