<svg id="Layer_1" data-name="Layer 1" xmlns="http://www.w3.org/2000/svg" viewBox="0 0 525.15 176"><defs><style>.cls-1,.cls-3{fill:#231f20;}.cls-2,.cls-4{fill:#fff;}.cls-3{stroke:#fff;}.cls-3,.cls-4{stroke-miterlimit:10;}.cls-4{stroke:#000;stroke-width:1.48px;}</style></defs><path class="cls-1" d="M536.46,296c-12.85-1.91-27.52,1.07-35.38,7.9a40.6,40.6,0,0,0-17.53-3.29c-1,0-2.06.09-3.08.17a47.41,47.41,0,0,0-34.79-4.66,44,44,0,0,0-17.53-5.28,49.93,49.93,0,0,0-17.6,1.39,45.29,45.29,0,0,0-6.82-1.64c-3.23-7-10.9-13.12-22.45-14.83-13.53-2-30.42,1.16-37,9.8-.27.35-.52.71-.79,1.06a53.83,53.83,0,0,0-10-.58c-3.32-3.24-8.11-5.9-14.29-7.59-10.06-2.77-23.79-2-33,2.45a21.36,21.36,0,0,0-3.48-2.65,43.18,43.18,0,0,0-18.83-5.86,47.84,47.84,0,0,0-22.5,3.32,42.54,42.54,0,0,0-17.82-5.44c-12.09-1.06-24.77,2.48-31.64,9a48.09,48.09,0,0,0-5.76-.85,50.55,50.55,0,0,0-25.06,4.35,34.36,34.36,0,0,0-13-4.58,59.27,59.27,0,0,0-17.44,0c-6.52,1-15.61,4.95-19,9.07-15.42-.55-28.29,5.83-33.27,15.45A665.35,665.35,0,0,0,36,403.64c-1.82,5.63-1.26,11.37,3.31,16.44,4,4.42,11.78,8.64,19.59,9.8a55.53,55.53,0,0,0,16.28-.09,39.65,39.65,0,0,0,7.51,2.86c6.52,1.79,14.44,2.53,21.36,1.08,6.2-1.31,13.15-3.73,17.3-7.29a45.27,45.27,0,0,0,13.45,3.29,46.64,46.64,0,0,0,23.95-4l3.6,3a28.38,28.38,0,0,0,10.55,4.41c6.51,1.79,14.43,2.53,21.35,1.07.84-.17,1.67-.37,2.48-.59.68.53,1.35,1,2,1.43,5.12,3.33,11.72,5.24,18.82,5.86a54,54,0,0,0,17-1.36,37.76,37.76,0,0,0,7.38,1.87c11,1.63,24.52-.18,32.58-5.67,4,4.34,11.7,8.42,19.37,9.56,8.39,1.24,17.81,1,25.27-2.15A31.48,31.48,0,0,0,330.12,436,36.2,36.2,0,0,0,337,437.7a59.89,59.89,0,0,0,17.43,0,41.37,41.37,0,0,0,10.95-3.48,35,35,0,0,0,10.95,3.59,59.89,59.89,0,0,0,17.43,0,35,35,0,0,0,4.43-1A35.55,35.55,0,0,0,410.48,441a53.66,53.66,0,0,0,21.34-1.07A43.5,43.5,0,0,0,449.36,445c7,.61,14.8,0,20.91-2.53a31.55,31.55,0,0,0,10-6.32,42,42,0,0,0,13,1.74c14-.41,28.39-6.28,31.62-15.66l34.47-100.08C563.1,311.32,554.3,298.59,536.46,296Z" transform="translate(-35.07 -270.03)"/><polygon class="cls-2" points="49.62 106.32 64.62 122.32 83.62 106.32 100.62 26.32 88.62 26.32 75.12 95.32 65.62 105.32 49.62 97.32 49.62 106.32"/><polygon class="cls-2" points="100.62 82.32 100.62 104.32 108.62 122.32 124.62 112.32 133.62 122.32 139.62 122.32 128.62 107.32 130.62 82.32 123.62 82.32 120.12 102.32 111.62 109.32 100.62 82.32"/><polygon class="cls-2" points="156.62 122.32 151.62 116.32 151.62 82.32 156.62 93.32 169.62 82.32 180.62 91.32 180.62 122.32 173.62 127.32 172.62 95.32 166.12 92.32 159.62 102.32 156.62 122.32"/><polygon class="cls-2" points="190.62 117.32 197.62 122.32 205.62 117.32 205.62 82.32 198.12 74.32 190.62 82.32 190.62 117.32"/><polygon class="cls-2" points="190.62 59.4 198.12 67.32 205.62 59.4 198.12 52.51 190.62 59.4"/><polygon class="cls-2" points="218.01 96.06 224.55 89.91 227 92.56 230.52 96.38 230.38 101.8 240.54 94.14 248.55 100.48 248.23 112.84 243.58 121.22 230.06 114.56 228.43 144.31 222.64 147.37 218.2 142.68 218.01 96.06"/><polygon points="238.84 101.11 233.09 106.08 232.97 110.93 240.51 115.46 244.95 111.74 245.15 103.83 238.84 101.11"/><polygon class="cls-2" points="256.07 120.14 256.07 128.31 275.98 116.07 275.98 110.94 263.22 104.82 263.22 98.94 275.98 96.07 273.68 89.75 256.07 91.8 256.07 107.37 266.02 112.07 256.07 120.14"/><polygon class="cls-2" points="294.45 129.55 297 132.87 300.83 129.55 300.83 114.34 308.75 114.34 311.81 111.3 309.51 109.64 300.32 109.64 300.07 100.96 297 96.11 293.17 102.49 293.17 111.3 287.81 111.3 285.51 114.34 288.32 116.79 293.17 116.79 294.45 129.55"/><polygon class="cls-2" points="316.32 98.52 316.32 113.99 324.32 131.99 340.32 121.99 349.32 131.99 355.32 131.99 344.32 116.99 345.88 97.58 338.04 99.31 335.82 111.99 327.32 118.99 316.32 98.52"/><polygon class="cls-2" points="388.46 126.97 382.36 133.56 379.73 131.08 375.96 127.51 375.73 122.09 366.12 130.42 357.69 124.65 357.17 112.3 362.24 105.58 375.18 109.33 378.28 82.52 382.02 76.73 385.09 80.48 388.46 126.97"/><polygon points="367.37 123.72 372.76 118.38 372.55 113.54 364.71 109.53 360.54 113.54 360.88 121.45 367.37 123.72"/><polygon class="cls-2" points="394.2 129.15 401.07 133.56 408.92 129.15 408.92 98.27 401.56 91.21 394.2 98.27 394.2 129.15"/><polygon class="cls-2" points="394.2 78.05 401.56 85.03 408.92 78.05 401.56 71.97 394.2 78.05"/><polygon class="cls-2" points="431.39 97.58 420.15 105.15 420.15 123.72 429.68 132.87 440.58 123.72 440.58 103.63 431.39 97.58"/><polygon class="cls-3" points="430.37 105.15 425.6 109.53 425.6 119.63 430.37 123.72 434.79 118.26 434.79 107.99 430.37 105.15"/><polygon class="cls-2" points="445.09 123.09 445.09 131.26 465 119.03 465 113.9 452.24 107.78 452.24 101.9 465 99.03 455.05 93.6 445.09 99.54 445.09 110.33 455.05 115.03 445.09 123.09"/><path class="cls-2" d="M525.83,365.8s-14.05-9.56-25.76,3.64C500.07,369.44,518.16,377.06,525.83,365.8Z" transform="translate(-35.07 -270.03)"/><path class="cls-4" d="M523,366.54s-17.66-.48-20.09,2.84" transform="translate(-35.07 -270.03)"/></svg>