<?xml version="1.0" encoding="utf-8"?>
<!-- Generator: Adobe Illustrator 27.1.1, SVG Export Plug-In . SVG Version: 6.00 Build 0)  -->
<svg version="1.1" id="Layer_1" xmlns="http://www.w3.org/2000/svg" xmlns:xlink="http://www.w3.org/1999/xlink" x="0px" y="0px"
	 viewBox="0 0 525.2 176" style="enable-background:new 0 0 525.2 176;" xml:space="preserve">
<style type="text/css">
	.st0{fill:#F7A8B8;}
	.st1{fill:#FFFFFF;}
	.st2{fill:#F7A8B8;stroke:#FFFFFF;stroke-miterlimit:10;}
	.st3{fill:#FFFFFF;stroke:#F7A8B8;stroke-width:1.48;stroke-miterlimit:10;}
</style>
<path class="st0" d="M501.4,26c-12.8-1.9-27.5,1.1-35.4,7.9c-5.5-2.4-11.5-3.5-17.5-3.3c-1,0-2.1,0.1-3.1,0.2
	c-10.6-5.9-23-7.6-34.8-4.7c-5.4-3-11.4-4.8-17.5-5.3c-5.9-0.6-11.9-0.1-17.6,1.4c-2.2-0.7-4.5-1.3-6.8-1.6
	c-3.2-7-10.9-13.1-22.5-14.8c-13.5-2-30.4,1.2-37,9.8c-0.3,0.4-0.5,0.7-0.8,1.1c-3.3-0.5-6.7-0.7-10-0.6c-3.3-3.2-8.1-5.9-14.3-7.6
	c-10.1-2.8-23.8-2-33,2.5c-1.1-1-2.2-1.9-3.5-2.6c-5.7-3.4-12.2-5.4-18.8-5.9c-7.7-0.7-15.4,0.4-22.5,3.3c-5.5-3.1-11.6-5-17.8-5.4
	c-12.1-1.1-24.8,2.5-31.6,9c-1.9-0.4-3.8-0.7-5.8-0.9c-8.6-0.7-17.2,0.8-25.1,4.4c-4-2.4-8.4-3.9-13-4.6c-5.8-0.9-11.7-0.9-17.4,0
	c-6.5,1-15.6,5-19,9.1c-15.4-0.5-28.3,5.8-33.3,15.5C26.4,65.1,12.3,98.9,0.9,133.6c-1.8,5.6-1.3,11.4,3.3,16.4
	c4,4.4,11.8,8.6,19.6,9.8c5.4,0.8,10.9,0.7,16.3-0.1c2.4,1.2,4.9,2.2,7.5,2.9c6.5,1.8,14.4,2.5,21.4,1.1c6.2-1.3,13.2-3.7,17.3-7.3
	c4.3,1.8,8.8,2.9,13.4,3.3c8.2,0.8,16.5-0.6,23.9-4l3.6,3c3.2,2.2,6.8,3.7,10.6,4.4c6.5,1.8,14.4,2.5,21.4,1.1
	c0.8-0.2,1.7-0.4,2.5-0.6c0.7,0.5,1.4,1,2,1.4c5.1,3.3,11.7,5.2,18.8,5.9c5.7,0.5,11.4,0,17-1.4c2.4,0.9,4.9,1.5,7.4,1.9
	c11,1.6,24.5-0.2,32.6-5.7c4,4.3,11.7,8.4,19.4,9.6c8.4,1.2,17.8,1,25.3-2.1c4.1-1.6,7.9-4,11-7.2c2.2,0.8,4.5,1.4,6.9,1.7
	c5.8,0.8,11.7,0.8,17.4,0c3.8-0.6,7.5-1.8,11-3.5c3.4,1.8,7.1,3,11,3.6c5.8,0.8,11.7,0.8,17.4,0c1.5-0.2,3-0.6,4.4-1
	c3.8,2.1,8,3.6,12.3,4.2c7.1,1.1,14.4,0.7,21.3-1.1c5.4,2.9,11.4,4.6,17.5,5.1c7,0.6,14.8,0,20.9-2.5c3.7-1.5,7.1-3.6,10-6.3
	c4.2,1.3,8.6,1.8,13,1.7c14-0.4,28.4-6.3,31.6-15.7l34.5-100.1C528,41.3,519.2,28.6,501.4,26z"/>
<polygon class="st1" points="49.6,106.3 64.6,122.3 83.6,106.3 100.6,26.3 88.6,26.3 75.1,95.3 65.6,105.3 49.6,97.3 "/>
<polygon class="st1" points="100.6,82.3 100.6,104.3 108.6,122.3 124.6,112.3 133.6,122.3 139.6,122.3 128.6,107.3 130.6,82.3 
	123.6,82.3 120.1,102.3 111.6,109.3 "/>
<polygon class="st1" points="156.6,122.3 151.6,116.3 151.6,82.3 156.6,93.3 169.6,82.3 180.6,91.3 180.6,122.3 173.6,127.3 
	172.6,95.3 166.1,92.3 159.6,102.3 "/>
<polygon class="st1" points="190.6,117.3 197.6,122.3 205.6,117.3 205.6,82.3 198.1,74.3 190.6,82.3 "/>
<polygon class="st1" points="190.6,59.4 198.1,67.3 205.6,59.4 198.1,52.5 "/>
<polygon class="st1" points="218,96.1 224.6,89.9 227,92.6 230.5,96.4 230.4,101.8 240.5,94.1 248.6,100.5 248.2,112.8 243.6,121.2 
	230.1,114.6 228.4,144.3 222.6,147.4 218.2,142.7 "/>
<polygon class="st0" points="238.8,101.1 233.1,106.1 233,110.9 240.5,115.5 244.9,111.7 245.1,103.8 "/>
<polygon class="st1" points="256.1,120.1 256.1,128.3 276,116.1 276,110.9 263.2,104.8 263.2,98.9 276,96.1 273.7,89.8 256.1,91.8 
	256.1,107.4 266,112.1 "/>
<polygon class="st1" points="294.5,129.6 297,132.9 300.8,129.6 300.8,114.3 308.8,114.3 311.8,111.3 309.5,109.6 300.3,109.6 
	300.1,101 297,96.1 293.2,102.5 293.2,111.3 287.8,111.3 285.5,114.3 288.3,116.8 293.2,116.8 "/>
<polygon class="st1" points="316.3,98.5 316.3,114 324.3,132 340.3,122 349.3,132 355.3,132 344.3,117 345.9,97.6 338,99.3 
	335.8,112 327.3,119 "/>
<polygon class="st1" points="388.5,127 382.4,133.6 379.7,131.1 376,127.5 375.7,122.1 366.1,130.4 357.7,124.7 357.2,112.3 
	362.2,105.6 375.2,109.3 378.3,82.5 382,76.7 385.1,80.5 "/>
<polygon class="st0" points="367.4,123.7 372.8,118.4 372.5,113.5 364.7,109.5 360.5,113.5 360.9,121.4 "/>
<polygon class="st1" points="394.2,129.1 401.1,133.6 408.9,129.1 408.9,98.3 401.6,91.2 394.2,98.3 "/>
<polygon class="st1" points="394.2,78.1 401.6,85 408.9,78.1 401.6,72 "/>
<polygon class="st1" points="431.4,97.6 420.1,105.2 420.1,123.7 429.7,132.9 440.6,123.7 440.6,103.6 "/>
<polygon class="st2" points="430.4,105.2 425.6,109.5 425.6,119.6 430.4,123.7 434.8,118.3 434.8,108 "/>
<polygon class="st1" points="445.1,123.1 445.1,131.3 465,119 465,113.9 452.2,107.8 452.2,101.9 465,99 455,93.6 445.1,99.5 
	445.1,110.3 455,115 "/>
<path class="st1" d="M490.8,95.8c0,0-14-9.6-25.8,3.6C465,99.4,483.1,107,490.8,95.8z"/>
<path class="st3" d="M487.9,96.5c0,0-17.7-0.5-20.1,2.8"/>
</svg>
