<?xml version="1.0" encoding="utf-8"?>
<!-- Generator: Adobe Illustrator 26.0.1, SVG Export Plug-In . SVG Version: 6.00 Build 0)  -->
<svg version="1.1" id="Layer_1" xmlns="http://www.w3.org/2000/svg" xmlns:xlink="http://www.w3.org/1999/xlink" x="0px" y="0px"
	 viewBox="0 0 246 113" style="enable-background:new 0 0 246 113;" xml:space="preserve">
<style type="text/css">
	.st0{clip-path:url(#SVGID_00000023977031301665034640000006416586439914939569_);}
	.st1{fill:#FEFEFE;}
	.st2{fill:#2A47F2;}
	.st3{fill:#42AE30;}
	.st4{fill:#050506;}
	.st5{fill:none;stroke:#000000;}
</style>
<g>
	<defs>
		<ellipse id="SVGID_1_" cx="124" cy="56.5" rx="121.5" ry="53"/>
	</defs>
	<clipPath id="SVGID_00000149363441914775749050000001795495787583041974_">
		<use xlink:href="#SVGID_1_"  style="overflow:visible;"/>
	</clipPath>
	<g style="clip-path:url(#SVGID_00000149363441914775749050000001795495787583041974_);">
		<path class="st1" d="M245.5,179.3H0V-66.3h245.5V179.3z M123.7,93.8l0.1,0.1l0.1-0.1l1-0.4h20.3V53.7c1.1,0.3,1.3,1.1,1.8,1.7
			c6.1,8,12.3,16.1,18.4,24.1c2.4,3.1,5.2,3.1,7.6,0c6.1-8,12.3-16.1,18.4-24.1c0.5-0.6,0.7-1.5,1.9-1.6v39.4H219V15
			c-0.8-0.3-1.7-0.5-2.5-0.3c-6.7,0-13.4,0.1-20.1,0c-2-0.1-3.8,0.9-4.9,2.5c-6.9,9.3-14,18.5-21,27.7c-0.4,0.5-0.7,1.3-1.6,1.5
			c-0.6-0.8-1.3-1.7-1.9-2.5c-6.8-9-13.6-18-20.3-27c-0.9-1.4-2.4-2.3-4-2.2c-7.3,0.1-14.7,0.1-22,0.1c-2.2-0.9-4.7-0.9-6.8,0.1
			H94.5V57L60.3,14.9H34v78.3h26.4V51.5l34.2,41.9c8.9,0,17.6,0.2,26.3-0.1C121.7,93.8,122.7,94,123.7,93.8z"/>
		<path class="st2" d="M120.7,14.8c7.3,0,14.7,0,22-0.1c1.7,0,3.2,0.8,4,2.2c6.7,9,13.5,18,20.3,27c0.6,0.8,1.3,1.7,1.9,2.5
			c1-0.2,1.2-1,1.6-1.5c7-9.2,14-18.4,21-27.7c1.1-1.7,2.9-2.6,4.9-2.5c6.7,0.1,13.4,0,20.1,0c0.8-0.1,1.7,0,2.5,0.3v78.3h-25.7
			V53.9c-1.2,0.1-1.5,1-1.9,1.6c-6.2,8.1-12.3,16.1-18.4,24.1c-2.3,3.1-5.2,3-7.6,0c-6.1-8.1-12.3-16.1-18.4-24.1
			c-0.5-0.6-0.7-1.5-1.8-1.7v39.7h-20.3c-0.3-0.6-0.4-1.4-0.9-1.7c-3.8-3.1-3.6-6.9-2.4-11c0.3-1.1,0.9-2.4,0.6-3.3
			c-1.7-5.3,1.6-10,1.6-15.1c3.5-0.9,4.4-3.1,4-6.2c-0.1-1.1,0.1-2.3,0.5-3.4c1.5-5.4,1.7-10.9,1.6-16.4c0-3.7-1-6.1-4.7-8.1
			c-4.2-2.3-4.9-2.8-4.2-6.4C121.6,19.4,121.4,17,120.7,14.8z"/>
		<path class="st3" d="M120.9,93.3c-8.7,0.4-17.4,0.2-26.3,0.1L60.4,51.5v41.7H34V14.9h26.3L94.5,57V14.9h19.4
			c-0.1,1.2-1.9,1.4-1.7,3c1.6,2.8,1.6,6.5,4.4,9.3c-2.3,0.7-4.4,0.4-6,1.9c-1.4,1.2-1.9,3.5-4.1,3.9c-1-3.1-0.4-6.5,3.8-7.4
			c-1.3-2,3-2.8,1.1-5.2l-2.3,1.4c-2-0.8-3.8,0.4-5.5,1.2c-2,0.9-4,0-5.9,0.7c-0.4,0.8-0.3,1.8,0.3,2.6c1.5,0.4,3.1,0.3,4.5-0.3
			c0.9,0.2,1.7,0.6,2.4,1.3c-0.2,3.8-2.4,7.6-1.4,11.8c3.3,1.2,4.8-2.5,7.3-2.9c1.1,1.5,0.8,3.1,0.6,4.4c-1,5.9-1.5,11.9-2.4,17.8
			c-0.4,3-0.3,6,0.2,9c0.5,3.3,1.8,6.7-0.3,10.1c3,6.4,1.7,11.6-5.3,15.1c3.9,1.3,6.6-1.6,10.1-1.4c0.4-3.4,1.4-6.6,1.1-9.8
			c-0.5-4.5,0-8.8,0.3-13.1c0.1-1.4-0.1-3.1,1.3-4c0.6,0.2,0.9,0.6,0.9,1c-0.1,4.2,0.4,8.5-0.1,12.7s-0.9,8.2,0.4,12.2
			C118.7,91.3,120.8,91.3,120.9,93.3z M100.2,21.4c1,0.1,1.7-0.3,3.1-0.7c-1.3-0.5-1.8-1.3-2.8-1.4C99.8,19.8,99.8,20.4,100.2,21.4
			L100.2,21.4z"/>
		<path class="st4" d="M120.9,93.3c-0.1-2-2.2-2-3.2-3.3c-1.2-3.9-0.9-8.1-0.4-12.2s0-8.5,0.1-12.7c0-0.4-0.2-0.8-0.9-1
			c-1.5,0.9-1.2,2.6-1.3,4c-0.3,4.4-0.8,8.7-0.3,13.1c0.3,3.1-0.7,6.4-1.1,9.8c-3.5-0.3-6.3,2.6-10.1,1.4c7-3.4,8.3-8.6,5.3-15.1
			c2.1-3.4,0.8-6.8,0.3-10.1c-0.5-3-0.6-6-0.2-9c0.9-5.9,1.5-11.9,2.4-17.8c0.2-1.4,0.5-2.9-0.6-4.4c-2.6,0.4-4,4.1-7.3,2.9
			c-1-4.1,1.2-8,1.4-11.8c-0.7-0.6-1.5-1.1-2.4-1.3c-1.4,0.6-3,0.7-4.5,0.3c-0.6-0.7-0.7-1.7-0.3-2.6c1.9-0.7,4,0.2,5.9-0.7
			c1.7-0.8,3.5-2,5.5-1.2l2.3-1.4c1.9,2.5-2.4,3.2-1.1,5.2c-4.2,0.9-4.8,4.4-3.8,7.4c2.2-0.4,2.7-2.6,4.1-3.9c1.6-1.5,3.6-1.1,6-1.9
			c-2.8-2.8-2.8-6.5-4.4-9.3c-0.2-1.6,1.5-1.8,1.7-3c2.2-1,4.6-1,6.8-0.1c0.7,2.2,0.9,4.6,0.4,6.9c-0.8,3.6,0,4.1,4.2,6.4
			c3.7,2,4.6,4.4,4.7,8.1c0.1,5.5-0.1,11-1.6,16.4c-0.4,1.1-0.5,2.2-0.5,3.4c0.4,3.1-0.5,5.3-4,6.2c0,5.1-3.3,9.7-1.6,15.1
			c0.3,1-0.3,2.2-0.6,3.3c-1.2,4.1-1.4,8,2.4,11c0.5,0.4,0.6,1.1,0.9,1.7l-1,0.4l-0.1-0.1l-0.1,0.2
			C122.7,93.9,121.7,93.8,120.9,93.3z M125.7,44.1c-1.3,1.1-1.5,9.4-0.4,11.4C127.1,53.7,127.4,46.4,125.7,44.1L125.7,44.1z"/>
		<polygon class="st3" points="123.7,93.8 123.8,93.6 123.9,93.8 123.8,93.9 		"/>
		<path class="st4" d="M100.2,21.4c-0.4-0.9-0.4-1.6,0.3-2.1c1,0,1.4,0.9,2.8,1.4C101.9,21.1,101.2,21.5,100.2,21.4z"/>
		<path class="st2" d="M125.7,44.1c1.8,2.3,1.4,9.7-0.4,11.4C124.2,53.5,124.4,45.2,125.7,44.1z"/>
	</g>
</g>
<ellipse class="st5" cx="124" cy="56.5" rx="121.5" ry="53"/>
</svg>
